PathFileType	4	(X/Y/Z)	s07c0102.trc
DataRate	CameraRate	NumFrames	NumMarkers	Units	OrigDataRate	OrigDataStartFrame	OrigNumFrames
200	200	4	48	mm	200	1250	2000
Frame#	Time	racr			lacr			c7			jug			rlel			rdr			llel			ldr			s2			lic			ric			lasi			rasi			rpsi			lpsi			rgt			lgt			rth1			rth2			rth3			rth4			rlfc			rmfc			rsh1			rsh2			rsh3			rsh4			rlmal			rcal			rtoe			rmt5			lth1			lth2			lth4			lth3			llfc			lmfc			lsh1			lsh2			lsh3			lsh4			llmal			lcal			ltoe			lmt5			SBIKE			LBIKE			RBIKE			
		X1	Y1	Z1	X2	Y2	Z2	X3	Y3	Z3	X4	Y4	Z4	X5	Y5	Z5	X6	Y6	Z6	X7	Y7	Z7	X8	Y8	Z8	X9	Y9	Z9	X10	Y10	Z10	X11	Y11	Z11	X12	Y12	Z12	X13	Y13	Z13	X14	Y14	Z14	X15	Y15	Z15	X16	Y16	Z16	X17	Y17	Z17	X18	Y18	Z18	X19	Y19	Z19	X20	Y20	Z20	X21	Y21	Z21	X22	Y22	Z22	X23	Y23	Z23	X24	Y24	Z24	X25	Y25	Z25	X26	Y26	Z26	X27	Y27	Z27	X28	Y28	Z28	X29	Y29	Z29	X30	Y30	Z30	X31	Y31	Z31	X32	Y32	Z32	X33	Y33	Z33	X34	Y34	Z34	X35	Y35	Z35	X36	Y36	Z36	X37	Y37	Z37	X38	Y38	Z38	X39	Y39	Z39	X40	Y40	Z40	X41	Y41	Z41	X42	Y42	Z42	X43	Y43	Z43	X44	Y44	Z44	X45	Y45	Z45	X46	Y46	Z46	X47	Y47	Z47	X48	Y48	Z48	
1250	6.2500	475.667323	1407.981515	-78.050121	514.652072	1373.984991	-309.125236	458.562714	1437.432520	-208.137356	422.440278	1290.271933	-196.667122	512.936384	1091.397373	60.833573	719.332451	914.357339	-61.554070	520.314959	1101.893599	-537.100566	717.933272	913.241426	-429.202450	-128.011954	1215.137373	-282.160063	47.663570	1260.430209	-408.128245	17.563155	1278.088864	-118.976570	73.174356	1187.261119	-378.747251	40.012543	1225.344916	-132.307178	-107.932620	1260.105773	-234.785174	-85.271942	1262.810681	-338.066383	-23.908028	1146.918014	-75.678403	-3.377574	1102.933007	-434.100388	119.308089	1061.537852	-75.848865	199.302305	1028.018422	-90.787021	253.728578	962.281699	-93.456163	217.514861	1055.894334	-109.045998	347.329579	862.816389	-127.883564	332.262667	840.981800	-229.334287	303.027678	726.947358	-92.894517	294.859660	638.828948	-105.892273	262.069720	567.286456	-89.817961	308.875759	635.708118	-144.179162	203.224493	432.191558	-85.125418	142.008551	379.061686	-108.542608	429.625186	415.805925	-131.775290	362.392835	368.249887	-58.681927	77.753420	1013.195466	-428.039275	154.459651	970.599081	-421.538593	178.171591	995.243635	-410.495264	200.275320	894.282626	-414.820931	298.529618	749.056041	-384.413895	280.850244	733.356929	-285.332260	199.304655	637.057370	-404.266532	161.441967	561.371555	-387.101875	88.467270	509.399734	-395.108672	165.754274	561.237091	-345.121149	-5.399445	414.184490	-395.982809	-83.333635	424.571110	-360.814378	125.368981	223.376293	-359.899563	50.197338	257.827391	-420.240413	-263.444089	970.568933	-239.846885	-83.492536	78.863942	-437.911624	-83.477437	78.896266	-40.394158	
1251	6.2550	476.585740	1407.493542	-78.544879	514.377214	1376.455736	-310.755601	458.529224	1437.807430	-209.052782	424.181667	1290.147227	-198.475630	512.590755	1090.483461	61.826527	718.925202	914.103905	-61.484107	518.750676	1101.230525	-535.357635	717.876985	912.778583	-428.458082	-127.933273	1213.053463	-280.745144	47.738370	1258.930732	-406.180310	18.721042	1274.738772	-117.377352	73.200628	1185.756057	-377.058839	40.055589	1221.761636	-130.317652	-108.368165	1258.103036	-230.924899	-85.406100	1260.953484	-336.410021	-24.903390	1141.974803	-74.291992	-2.491816	1101.980867	-433.562782	116.698532	1051.724227	-74.288638	195.924485	1015.697302	-88.742434	247.904172	948.244590	-92.394383	215.482661	1044.175708	-104.751064	339.692143	848.463104	-126.077472	325.060558	826.627090	-228.150605	299.155967	712.772540	-91.661139	292.254336	624.679123	-105.771338	250.437647	549.628944	-94.880207	305.486177	622.421908	-144.335823	204.568390	415.314535	-84.857812	143.542947	361.642434	-107.639087	430.262477	406.845755	-131.404981	364.387839	356.974812	-58.591453	80.092553	1013.939363	-427.508427	157.738875	973.021563	-421.306251	181.007682	998.096513	-410.462193	205.200842	897.647024	-414.711757	305.726111	754.013337	-384.215082	288.012724	737.249964	-285.042995	204.044614	643.755228	-404.131114	164.632738	568.793168	-387.222918	90.151101	518.466020	-394.798319	169.342671	568.213270	-345.289794	-5.200971	425.450393	-396.033226	-82.784971	437.089030	-360.855528	122.384756	232.272831	-360.043442	47.797026	267.626734	-420.351182	-263.148780	970.582768	-239.795189	-83.459014	78.852975	-437.897783	-83.438115	78.870883	-40.381457	
1252	6.2600	477.467595	1407.249319	-79.042030	513.749756	1379.125088	-312.529109	458.204495	1438.498157	-210.013962	425.671109	1290.356944	-200.348581	512.681782	1089.940631	62.567740	718.553946	913.915110	-61.360115	517.575358	1100.863897	-533.847547	717.851859	912.463518	-427.891559	-127.919059	1211.030533	-279.168463	47.848898	1257.586430	-404.325517	19.949780	1271.270706	-115.771557	73.130764	1184.260898	-375.309234	40.173230	1218.053409	-128.346764	-108.435759	1255.663834	-228.931937	-85.682810	1259.110063	-334.373666	-25.534924	1137.015862	-73.130577	-1.559764	1101.039451	-432.967245	114.256627	1042.400165	-73.068403	192.253580	1003.950943	-87.038523	241.725334	934.808973	-91.488582	213.291046	1032.046628	-101.857237	332.957267	836.035995	-124.650384	317.220301	812.226463	-224.731951	294.899248	700.127531	-90.383556	274.757577	600.895024	-85.882433	248.744264	536.145777	-93.909169	301.929867	610.111034	-143.866774	205.405644	399.414236	-84.306063	144.604257	344.522690	-107.438585	430.285154	397.709488	-131.363818	365.836723	345.983266	-58.639118	82.340705	1014.428113	-427.182190	160.898247	975.199225	-421.361054	183.450382	1000.741985	-410.453756	210.069637	900.897291	-414.983893	312.764394	759.020696	-383.955195	295.841091	741.298531	-285.396615	208.826029	650.519872	-403.964476	167.787802	576.388903	-387.249578	92.319594	528.108680	-395.070633	172.869383	575.087695	-345.387731	-4.821550	436.696129	-396.023478	-82.147601	449.212725	-360.783242	120.060881	241.521140	-360.146063	45.985196	277.664918	-420.454908	-262.959367	970.594939	-239.727124	-83.427278	78.841920	-437.888823	-85.348608	81.305158	-38.822860	
1253	6.2650	477.957485	1407.035748	-79.573766	514.273176	1383.384476	-319.652395	457.519621	1439.718332	-210.912573	428.564014	1290.718391	-203.116615	513.017064	1089.778797	63.179236	718.307054	913.823563	-61.061316	516.853624	1100.878959	-532.530611	717.891788	912.205940	-427.445133	-127.812782	1208.846232	-277.448127	47.770025	1256.310384	-402.289821	21.075363	1267.884145	-114.157543	73.228434	1182.972646	-373.750749	40.471820	1214.499990	-126.373719	-108.539001	1253.318878	-226.651964	-85.805679	1257.098452	-332.502133	-26.050535	1132.829253	-71.635743	-0.794363	1100.095704	-432.205833	111.968875	1034.034498	-71.881961	188.580218	993.094225	-85.752960	235.745752	922.238439	-90.669185	210.811538	1020.732119	-99.518483	326.773988	824.363447	-123.833363	310.702976	801.607064	-223.963933	290.318090	688.100266	-89.421459	286.063306	599.100883	-105.394907	246.383258	523.578667	-92.635909	297.568994	598.282317	-143.328059	205.314139	385.181267	-83.324625	145.642521	329.254157	-106.511897	430.028728	388.150645	-131.176489	366.839903	335.240488	-58.511927	84.356699	1014.691602	-427.194172	163.887689	977.321480	-421.665147	185.936526	1003.312597	-410.525835	214.755986	904.136685	-415.889150	319.507938	764.169378	-383.668888	302.594166	746.006065	-284.822548	213.640225	657.431342	-403.776501	171.087525	584.142024	-387.212982	94.429307	537.213073	-394.597215	176.067032	582.242995	-345.534251	-4.188503	447.883671	-396.144581	-81.059917	461.009814	-360.780231	118.470542	251.023013	-360.282118	44.777353	287.870998	-420.550832	-262.938366	970.587148	-239.683244	-83.405212	78.829463	-437.888716	-83.429365	78.843738	-40.348564	
